<svg version="1.2" xmlns="http://www.w3.org/2000/svg" viewBox="0 0 498 474" width="498" height="474">
	<style>
		.s0 { fill: #ffffff } 
		.s1 { fill: #010101 } 
	</style>
	<g id="Background">

		<path id="Path 1" class="s1" d="m160.47 195.29c-8.82 5.07-17.25 10-18.75 10.96l-2.72 1.75 0.5 90.16c22.47 13.18 30.69 17.87 32.75 18.92 2.06 1.06 4.54 1.93 5.5 1.94 0.96 0.01 5.46-2.24 10-5 4.54-2.76 8.47-5.02 8.75-5.02 0.28 0 3.99-2.09 8.25-4.64 4.26-2.54 12.03-7.11 17.25-10.14 5.22-3.03 11.3-6.52 13.5-7.76 2.2-1.24 8.05-4.61 13-7.49 4.95-2.87 10.57-6.12 12.5-7.21 1.93-1.09 6.43-3.68 10-5.76 3.57-2.08 8.3-4.78 10.5-6.01 2.2-1.23 13-7.44 24-13.79 11-6.36 21.13-12.15 22.5-12.87 1.38-0.73 2.84-1.32 3.25-1.32 0.41-0.01 0.75 9.44 0.75 20.99 0 16.14-0.29 21-1.25 20.99-0.69-0.01-3.27-1.19-5.75-2.62-2.48-1.44-6.07-3.51-8-4.61-1.93-1.1-6.99-3.97-11.25-6.38l-7.75-4.38c-25.96 14.82-34.29 19.77-35.25 20.56-0.96 0.79-1.52 1.89-1.25 2.44 0.27 0.55 6.2 4.26 13.17 8.25 6.96 3.99 14.5 8.32 16.75 9.62 2.24 1.31 12.35 7.16 22.46 13 18.05 10.44 18.43 10.6 21 9.04 1.44-0.87 9.82-5.74 18.62-10.83 8.8-5.08 16.33-9.76 16.73-10.41 0.41-0.64 0.77-20.52 0.8-44.17 0.05-39.92-0.07-43.15-1.74-45.16-0.98-1.19-9.78-6.7-19.54-12.25-11.78-6.7-18.17-9.8-19-9.22-0.69 0.48-7.1 4.23-14.25 8.33-7.15 4.11-15.02 8.6-17.5 9.99-2.48 1.39-8.55 4.89-13.5 7.78-4.95 2.88-27.45 15.84-50 28.79-22.55 12.95-43.03 24.68-45.5 26.07-2.47 1.38-5.85 3.33-7.5 4.34-1.65 1-3.56 1.82-4.25 1.83-0.96 0-1.26-4.83-1.28-20.75-0.01-11.41 0.32-21.08 0.75-21.48 0.43-0.4 3.71 0.93 7.28 2.95 3.57 2.02 8.75 5.1 11.5 6.84 2.75 1.74 7.36 4.35 10.25 5.8l5.25 2.64c18.21-10.55 26.53-15.38 30.23-17.55 3.7-2.17 6.63-4.33 6.5-4.8-0.13-0.46-4.51-3.33-9.73-6.36-5.22-3.03-15.24-8.84-22.25-12.9-7.01-4.07-18.6-10.76-25.75-14.89-7.15-4.12-13.34-7.48-13.75-7.46-0.41 0.02-7.96 4.18-16.78 9.25z"/>
	</g>
</svg>